HIERARCHY
ROOT hip
{
	OFFSET 0.000000 0.000000 0.000000 
	CHANNELS 6 Xposition Yposition Zposition Xrotation Zrotation Yrotation
	JOINT abdomen
	{
		OFFSET 0.000000 3.402643 0.000000 
		CHANNELS 3 Xrotation Zrotation Yrotation
		JOINT chest
		{
			OFFSET 0.000000 8.438565 -0.680529 
			CHANNELS 3 Xrotation Zrotation Yrotation
			JOINT neck
			{
				OFFSET 0.000000 10.207942 -0.272212 
				CHANNELS 3 Xrotation Zrotation Yrotation
				JOINT head
				{
					OFFSET 0.000000 3.130431 0.000000 
					CHANNELS 3 Xrotation Zrotation Yrotation
					End Site
					{
						OFFSET 0.000000 3.130435 0.000000 
					}
				}
			}
			JOINT lCollar
			{
				OFFSET 3.470700 6.669187 -0.816635 
				CHANNELS 3 Yrotation Zrotation Xrotation
				JOINT lShldr
				{
					OFFSET 3.198488 0.000000 0.000000 
					CHANNELS 3 Zrotation Yrotation Xrotation
					JOINT lForeArm
					{
						OFFSET 10.139888 0.000000 0.000000 
						CHANNELS 3 Yrotation Zrotation Xrotation
						JOINT lHand
						{
							OFFSET 8.370511 0.000000 0.000000 
							CHANNELS 3 Zrotation Yrotation Xrotation
							End Site
							{
								OFFSET 4.083176 0.000000 0.000000 
							}
						}
					}
				}
			}
			JOINT rCollar
			{
				OFFSET -3.470700 6.669187 -0.816635 
				CHANNELS 3 Yrotation Zrotation Xrotation
				JOINT rShldr
				{
					OFFSET -3.198488 0.000000 0.000000 
					CHANNELS 3 Zrotation Yrotation Xrotation
					JOINT rForeArm
					{
						OFFSET -10.139888 0.000000 0.000000 
						CHANNELS 3 Yrotation Zrotation Xrotation
						JOINT rHand
						{
							OFFSET -8.370511 0.000000 0.000000 
							CHANNELS 3 Zrotation Yrotation Xrotation
							End Site
							{
								OFFSET -4.083176 0.000000 0.000000 
							}
						}
					}
				}
			}
		}
	}
	JOINT lThigh
	{
		OFFSET 5.308129 -1.633274 1.361059 
		CHANNELS 3 Xrotation Zrotation Yrotation
		JOINT lShin
		{
			OFFSET -2.041588 -20.007561 0.000000 
			CHANNELS 3 Xrotation Zrotation Yrotation
			JOINT lFoot
			{
				OFFSET 0.000000 -19.190928 -1.224953 
				CHANNELS 3 Xrotation Yrotation Zrotation
				End Site
				{
					OFFSET 0.000000 -2.449906 4.627600 
				}
			}
		}
	}
	JOINT rThigh
	{
		OFFSET -5.308129 -1.633274 1.361059 
		CHANNELS 3 Xrotation Zrotation Yrotation
		JOINT rShin
		{
			OFFSET 2.041588 -20.007561 0.000000 
			CHANNELS 3 Xrotation Zrotation Yrotation
			JOINT rFoot
			{
				OFFSET 0.000000 -19.190928 -1.224953 
				CHANNELS 3 Xrotation Yrotation Zrotation
				End Site
				{
					OFFSET 0.000000 -2.449906 4.627600 
				}
			}
		}
	}
}
MOTION
Frames: 15
Frame Time: 0.016667
-3.713430 45.382175 -1.689108 17.886101 -2.304950 -5.079740 -17.500799 5.201360 0.621442 20.919701 5.556530 1.119920 37.328899 -8.704570 -2.673760 22.276899 0.324558 0.778386 2.000000 -2.000000 0.000000 -104.818001 -21.055599 -128.826004 27.588200 -0.336020 0.063375 0.119755 -0.135871 165.207001 -2.000000 2.000000 0.000000 -77.358803 154.839005 2.312540 -19.951401 0.343359 0.046654 179.897995 179.876007 -2.253670 -29.500937 7.389598 -2.109906 26.127489 2.373925 2.156924 -7.970057 0.660576 1.527561 -27.116112 -1.868318 4.025312 23.072533 -2.170544 -2.058499 -8.380942 -9.337446 -3.366531 
-3.686412 45.385139 -1.686321 17.895901 -2.314120 -4.995240 -17.524401 5.310680 0.524082 20.880501 5.732330 1.087850 37.333099 -8.844770 -2.567150 22.296600 0.352297 0.826753 2.000000 -2.000000 0.000000 -104.896004 -21.094601 -128.757004 27.451500 -0.336171 0.063086 0.119686 -0.135827 165.237000 -2.000000 2.000000 0.000000 -77.466301 154.869003 2.292930 -19.834200 0.343454 0.046391 179.897995 179.876007 -2.273200 -29.486486 7.330938 -2.011470 25.969608 2.377347 2.141236 -7.834503 0.714181 1.529226 -27.101259 -1.916789 4.006100 23.012846 -2.171535 -2.040418 -8.537031 -9.364335 -3.404907 
-3.660069 45.398777 -1.680323 17.954201 -2.285480 -4.900690 -17.564199 5.324890 0.505959 20.910000 5.742080 1.081070 37.323898 -8.873270 -2.540990 22.277100 0.361653 0.839460 2.000000 -2.000000 0.000000 -104.916000 -21.075300 -128.904007 27.314800 -0.336321 0.062796 0.118462 -0.135050 165.753998 -2.000000 2.000000 0.000000 -77.446800 154.936996 2.380650 -19.931900 0.343375 0.046610 179.897995 179.876007 -2.409920 -29.518869 7.272231 -2.328971 26.048584 2.375180 2.149033 -8.030758 0.413996 1.468027 -27.102530 -1.994672 3.971441 22.863997 -2.183013 -2.026113 -8.381774 -9.445267 -3.416941 
-3.644387 45.404694 -1.668033 17.954000 -2.266900 -4.943500 -17.535801 5.373160 0.524021 20.978701 5.800620 1.098120 37.261902 -8.967020 -2.537850 22.247700 0.343227 0.842927 2.000000 -2.000000 0.000000 -104.799004 -21.202101 -128.854996 27.334299 -0.336299 0.062837 0.118877 -0.135315 165.578003 -2.000000 2.000000 0.000000 -77.349098 154.908005 2.263540 -19.990499 0.343327 0.046742 179.897995 179.876007 -2.302500 -29.532902 7.278008 -2.049199 25.990061 2.371851 2.149412 -7.951321 0.320102 1.466971 -26.964916 -2.036284 4.006249 22.669510 -2.169688 -2.037306 -8.233575 -9.545302 -3.428083 
-3.623548 45.379349 -1.656799 17.856001 -2.249560 -4.972710 -17.498800 5.455530 0.522086 20.998501 5.937320 1.110920 37.221401 -9.108590 -2.499520 22.228100 0.334031 0.859288 2.000000 -2.000000 0.000000 -104.769997 -21.270300 -128.707993 27.529600 -0.336085 0.063251 0.119663 -0.135813 165.246002 -2.000000 2.000000 0.000000 -77.446899 154.957001 2.585680 -20.185801 0.343167 0.047180 179.897003 179.875000 -2.781010 -29.354258 7.275537 -1.613015 25.990927 2.366238 2.157906 -8.092714 0.384342 1.465560 -27.018423 -2.047262 4.072896 23.010813 -2.194400 -2.044799 -8.459873 -9.486280 -3.422284 
-3.591420 45.384758 -1.641959 17.797199 -2.231710 -5.091400 -17.468300 5.452340 0.597248 21.018000 5.829890 1.151130 37.251301 -9.014270 -2.461060 22.257700 0.389560 0.868043 2.000000 -2.000000 0.000000 -104.564003 -21.309000 -128.464005 27.773701 -0.335814 0.063767 0.120405 -0.136276 164.934006 -2.000000 2.000000 0.000000 -77.427399 154.996994 2.810190 -20.351801 0.343030 0.047551 179.895996 179.873993 -3.142340 -29.310408 7.239775 -1.587472 25.805193 2.360662 2.160195 -7.742562 0.439410 1.477116 -26.985350 -2.070853 4.049956 23.001833 -2.189557 -2.053809 -8.398067 -9.288492 -3.376255 
-3.563683 45.362354 -1.633186 17.816000 -2.175680 -5.171900 -17.440001 5.486930 0.578843 21.096600 5.917710 1.150130 37.247898 -9.103030 -2.453870 22.267401 0.380243 0.874815 2.000000 -2.000000 0.000000 -104.623001 -21.338900 -128.845001 27.764000 -0.335825 0.063746 0.120451 -0.136305 164.914001 -2.000000 2.000000 0.000000 -77.447098 155.016998 3.249600 -20.420200 0.342973 0.047704 179.895996 179.873993 -3.327890 -29.304192 7.191130 -1.267002 25.600836 2.338860 2.149657 -7.576606 0.720362 1.528976 -27.067255 -2.107650 4.129305 23.118555 -2.195480 -2.042834 -7.970921 -9.431314 -3.338625 
-3.540968 45.356953 -1.626468 17.816000 -2.175680 -5.240250 -17.431101 5.511700 0.561770 21.116301 5.937220 1.152340 37.239498 -9.145830 -2.419820 22.257601 0.380285 0.884516 2.000000 -2.000000 0.000000 -104.613998 -21.319599 -129.029999 27.812799 -0.335771 0.063849 0.120521 -0.136348 164.884995 -2.000000 2.000000 0.000000 -77.349403 154.998001 3.249650 -20.390900 0.342997 0.047638 179.895996 179.873993 -3.445070 -29.348352 7.192388 -1.315858 25.853670 2.362275 2.149875 -7.744148 0.727008 1.523373 -27.120411 -2.081479 4.276694 23.187456 -2.196707 -2.051425 -8.509679 -9.266335 -3.388157 
-3.518332 45.347305 -1.615593 17.805799 -2.138610 -5.335360 -17.439301 5.485440 0.630389 21.116199 5.859100 1.180870 37.275398 -9.058090 -2.480150 22.277201 0.380200 0.855348 2.000000 -2.000000 0.000000 -104.487000 -21.231600 -128.951996 27.842100 -0.335738 0.063911 0.120730 -0.136478 164.796997 -2.000000 2.000000 0.000000 -77.193001 154.957993 2.859120 -20.302999 0.343070 0.047442 179.895996 179.873993 -3.191170 -29.366938 7.164438 -1.106521 25.883410 2.362874 2.159171 -7.718643 0.824520 1.546288 -27.096327 -2.128294 4.266985 23.166906 -2.202959 -2.043299 -8.396634 -9.265413 -3.365544 
-3.506121 45.351032 -1.606235 17.728399 -2.204650 -5.421620 -17.409201 5.477840 0.666034 21.116199 5.810270 1.190150 37.320801 -9.009720 -2.477630 22.316200 0.380030 0.865373 2.000000 -2.000000 0.000000 -104.369003 -21.192301 -128.826004 27.910500 -0.335662 0.064055 0.121243 -0.136793 164.582001 -2.000000 2.000000 0.000000 -77.241997 155.016998 3.191000 -20.429899 0.342965 0.047726 179.895004 179.873993 -3.484140 -29.324905 7.220865 -1.126987 26.001184 2.360820 2.156520 -7.716387 0.901686 1.549516 -26.965870 -2.075297 4.177935 23.088350 -2.200030 -2.034570 -8.414833 -9.057954 -3.334775 
-3.491574 45.353348 -1.596968 17.748199 -2.223010 -5.516210 -17.419600 5.496230 0.659420 21.116199 5.839570 1.190440 37.434299 -8.989070 -2.425130 22.404200 0.398180 0.891651 2.000000 -2.000000 0.000000 -104.378998 -21.172701 -128.787003 27.930000 -0.335640 0.064097 0.121616 -0.137021 164.425995 -2.000000 2.000000 0.000000 -77.261497 155.037003 3.230020 -20.429899 0.342965 0.047726 179.895004 179.873993 -3.572030 -29.315424 7.270738 -1.272759 26.227169 2.362998 2.172215 -7.925649 0.833110 1.542120 -26.950216 -2.050897 4.203487 22.981518 -2.188721 -2.034597 -8.254493 -9.075682 -3.307277 
-3.480137 45.353863 -1.591070 17.757601 -2.194990 -5.556480 -17.449301 5.501360 0.644964 21.076900 5.868900 1.186740 37.440601 -9.049780 -2.452590 22.404100 0.370379 0.892171 2.000000 -2.000000 0.000000 -104.544998 -21.094999 -129.031006 27.812799 -0.335771 0.063849 0.121359 -0.136865 164.533005 -2.000000 2.000000 0.000000 -77.300598 155.065994 3.181120 -20.429899 0.342965 0.047726 179.895004 179.873001 -3.620850 -29.410797 7.229757 -1.099061 26.463530 2.358139 2.186065 -8.090971 0.976796 1.557019 -26.916475 -2.084455 4.182594 22.890888 -2.206658 -2.020324 -8.264351 -9.063989 -3.313459 
-3.470420 45.383724 -1.583847 17.698099 -2.121280 -5.530500 -17.427999 5.445960 0.664029 21.067101 5.849380 1.175800 37.442200 -9.058190 -2.469720 22.413799 0.351804 0.876301 2.000000 -2.000000 0.000000 -104.497002 -21.085100 -128.972000 27.910500 -0.335662 0.064055 0.121686 -0.137064 164.397003 -2.000000 2.000000 0.000000 -77.222397 154.996994 2.859020 -20.322500 0.343054 0.047486 179.895996 179.873993 -3.288820 -29.337521 7.126163 -0.779187 26.406544 2.340797 2.193437 -8.086698 1.052896 1.581477 -26.801582 -2.175489 4.185669 22.791637 -2.211335 -2.003319 -8.218628 -9.136332 -3.310250 
-3.461950 45.363388 -1.576803 17.657000 -1.944940 -5.492310 -17.445400 5.370930 0.685759 21.027800 5.839650 1.171730 37.443699 -9.053070 -2.502750 22.413700 0.333271 0.870134 2.000000 -2.000000 0.000000 -104.467003 -21.045799 -128.796005 27.988600 -0.335575 0.064220 0.122177 -0.137362 164.192001 -2.000000 2.000000 0.000000 -77.271202 154.977005 2.741880 -20.273701 0.343094 0.047376 179.895996 179.873993 -3.103280 -29.144218 6.946958 -1.065836 25.963400 2.348544 2.164325 -7.701829 0.811970 1.529564 -26.881615 -2.379414 4.178358 23.018011 -2.214723 -2.029044 -8.360502 -8.977121 -3.303493 
-3.453243 45.374073 -1.564490 17.717600 -2.121050 -5.443330 -17.484501 5.380240 0.710077 20.998301 5.712720 1.187290 37.425201 -9.055890 -2.520230 22.403799 0.305511 0.860831 2.000000 -2.000000 0.000000 -104.398003 -20.967600 -128.709000 27.998400 -0.335564 0.064241 0.122412 -0.137503 164.093994 -2.000000 2.000000 0.000000 -77.300499 154.987000 2.693030 -20.263901 0.343102 0.047354 179.895996 179.873993 -3.259530 -29.183281 7.100306 -1.357509 26.011984 2.348798 2.153729 -7.758887 0.697550 1.509973 -26.813641 -2.227535 4.145647 22.831591 -2.207542 -2.011550 -8.315431 -9.074321 -3.311956 
